<?xml version="1.0" encoding="iso-8859-1"?>
<svg id="Capa_1" enable-background="new 0 0 512 512" height="512" viewBox="0 0 512 512" width="512" 
  xmlns="http://www.w3.org/2000/svg">
  <path d="m55.935 451.83 90.131-90.131c25.721 25.721 23.504 69.641-4.953 98.098-22.771 22.771-55.445 28.741-80.771 17.038-9.762-4.512-12.011-17.401-4.407-25.005z" fill="#358bd8"/>
  <path d="m340.556 465.318h8.024l-39.809-159.378 34.817-8.697 41.981 168.075h13.421c21.639 0 39.182 17.542 39.182 39.182h-132.407v-4.39c0-19.215 15.577-34.792 34.791-34.792z" fill="#f59e18"/>
  <path d="m249.682 465.318h8.024l-39.809-159.378 34.817-8.697 41.981 168.075h13.421c21.639 0 39.182 17.542 39.182 39.182h-132.408v-4.39c0-19.215 15.577-34.792 34.792-34.792z" fill="#fab659"/>
  <path d="m452.27 100.957s-1.759 37.987-37.075 37.987l-27.073-46.946 36.554-11.014z" fill="#ec8d00"/>
  <path d="m403.995 62.2s49.853-10.255 56.504 29.455c.814 4.86-2.902 9.302-7.83 9.302h-37.642l-26.905-8.959z" fill="#fab659"/>
  <path d="m359.401 400.979c2.76-2.425 5.501-4.934 8.22-7.521l-24.033-96.216-34.817 8.697 28.155 112.722c7.671-5.369 15.18-11.27 22.475-17.682z" fill="#ec8d00"/>
  <path d="m411.421 81.037c2.461 8.715 3.773 17.913 3.773 27.407v172.318c0 45.791-37.127 82.919-82.919 82.919h-118.97v-83.657l27.542-65.324v-123.06l48.349-36.554z" fill="#dedede"/>
  <path d="m213.306 108.444v171.579l93.305-77.126c-26.536-15.38-44.387-33.826-44.387-66.708 0-49.083 50.047-17.113 99.14-17.113 22.475 0 37.312-31.478 50.057-38.04-11.934-42.427-50.928-73.536-97.17-73.536-27.869 0-53.112 11.299-71.373 29.571-18.272 18.261-29.572 43.505-29.572 71.373z" fill="#358bd8"/>
  <path d="m243.306 108.444c0-27.869 11.299-53.113 29.571-71.374 14.907-14.916 34.468-25.181 56.311-28.451-4.876-.724-9.86-1.12-14.937-1.12-27.869 0-53.112 11.299-71.374 29.571-18.271 18.261-29.571 43.505-29.571 71.374v171.579l30-24.798z" fill="#2e67cf"/>
  <path d="m212.565 217.457-26.645 31.663 60.754 83.777 92.925 45.547c9.925-8.721 19.588-18.627 28.936-29.735 36.244-43.07 30.71-107.374-12.36-143.618-43.07-36.245-107.366-30.704-143.61 12.366z" fill="#50e1cd"/>
  <path d="m241.747 401.426 13.142 52.616c11.678-2.208 23.215-5.503 34.527-9.861l-14.422-57.739z" fill="#f59e18"/>
  <path d="m153.749 287.349-32.171 38.229 40.285 73.178 78.985 27.19c19.092-2.574 37.911-8.568 56.161-18.041l-50.336-75.009z" fill="#50e1cd"/>
  <path d="m143.426 365.266 49.436-58.746-39.113-19.171-32.171 38.23z" fill="#00ad8d"/>
  <path d="m91.905 415.86c19.592 13.064 39.822 23.163 60.269 30.127 17.418-27.477 15.736-62.444-6.108-84.288z" fill="#2e67cf"/>
  <path d="m240.848 425.946c-47.836 6.472-97.428-8.446-144.386-43.587-7.541-5.643-8.824-16.449-2.759-23.656l27.876-33.126z" fill="#f4e64c"/>
  <path d="m211.492 284.382 31.073-36.925c33.508-39.818 90.99-47.556 133.508-19.864-.654-1.007-1.328-2.004-2.02-2.991-.023-.033-.046-.066-.069-.099-20.652-29.426-56.349-46.057-92.174-42.972-14.714 1.267-29.133 5.751-41.949 13.093-10.353 5.932-19.615 13.705-27.296 22.833l-26.645 31.663z" fill="#00ad8d"/>
  <path d="m185.92 249.12-32.171 38.229 143.26 120.557c14.601-7.573 28.849-17.386 42.589-29.462z" fill="#f4e64c"/>
  <path d="m161.023 260.708h49.965v42.27h-49.965z" fill="#fab659" transform="matrix(.644 -.765 .765 .644 -149.405 242.691)"/>
  <path d="m96.462 382.36c1.774 1.328 11.718 8.301 12.024 8.506 3.796 2.537 7.606 4.948 11.429 7.227.225-3.33 1.461-6.624 3.787-9.389l30.218-35.909-32.342-27.217s-27.872 33.121-27.876 33.125c-3.924 4.663-4.935 11.453-2.444 17.12 1.102 2.506 2.847 4.773 5.204 6.537z" fill="#fab659"/>
  <path d="m362.864 86.109v-17.431c0-4.142-3.358-7.5-7.5-7.5s-7.5 3.358-7.5 7.5v17.431c0 4.142 3.358 7.5 7.5 7.5s7.5-3.358 7.5-7.5z"/>
  <path d="m450.71 62.375c-14.399-9.873-33.44-9.354-42.743-8.34-19.086-32.761-54.654-54.035-93.798-54.035-24.642 0-48.768 8.497-67.934 23.926-3.227 2.597-3.736 7.319-1.139 10.545 2.598 3.227 7.319 3.737 10.545 1.139 16.75-13.483 36.988-20.61 58.528-20.61 36.142 0 68.75 21.037 84.134 52.75 1.536 3.167 2.885 6.429 4.051 9.751.061.174.123.347.183.521-.015.013-.031.027-.046.04-4.312 3.559-7.927 7.925-11.585 12.126-8.729 10.025-18.623 21.389-29.622 21.389-14.431 0-29.512-3.017-42.817-5.679-22.081-4.418-41.149-8.233-53.354 1.773-7.044 5.774-10.468 15.103-10.468 28.519 0 14.097 3.391 28.329 10.952 40.315-16.552 3.828-31.843 11.412-44.871 22.231v-90.292c0-18.871 5.601-37.054 16.197-52.583 2.334-3.421 1.454-8.087-1.968-10.422-3.422-2.334-8.088-1.454-10.422 1.968-12.303 18.03-18.806 39.137-18.806 61.037v105.396s-117.791 139.975-117.842 140.035c-8.71 10.351-6.802 26.403 4.004 34.49 3.254 2.436 6.526 4.767 9.811 7.015 0 0-51.12 51.12-51.147 51.147-11.094 11.094-7.661 30.543 6.564 37.116 9.572 4.423 19.901 6.565 30.329 6.565 21.071 0 42.534-8.75 58.891-25.107 10.682-10.682 18.211-23.53 22.093-37.529 23.757 6.849 48.803 9.128 73.342 5.808.047-.006.094-.014.142-.021l6.117 24.489c-22.594.83-40.719 19.47-40.719 42.263v4.39c0 4.142 3.358 7.5 7.5 7.5h223.278c4.142 0 7.5-3.358 7.5-7.5 0-25.74-20.941-46.682-46.681-46.682h-7.564l-23.475-93.984c32.999-14.162 54.743-46.748 54.743-83.072v-134.845c17.114-2.476 26.226-13.295 30.959-22.554 3.085-6.035 4.621-12.059 5.381-16.286 2.056-.932 3.909-2.311 5.407-4.08 2.95-3.485 4.209-8.071 3.454-12.582-2.048-12.23-7.803-21.665-17.104-28.041zm-35.67 6.207c7.881-.271 19.027.569 27.188 6.165 5.893 4.04 9.423 9.976 10.792 18.147.046.274-.142.564-.433.564h-31.006c-.664-4.796-1.651-9.533-2.951-14.184-1.011-3.617-2.208-7.199-3.59-10.692zm-196.818 153.704c11.505-13.667 26.995-24.034 44.063-29.331.129-.04.257-.083.386-.122 30.362-9.281 64.268-2.475 88.593 17.996 21.397 18.006 33.845 45.272 33.583 73.218-.257 27.471-13.039 50.223-31.118 70.008-4.583 5.016-9.405 9.821-14.387 14.44l-142.936-120.285s21.816-25.924 21.816-25.924zm106.451 238.608c-5.172-1.98-10.778-3.076-16.638-3.076h-7.563l-9.649-38.632c3.21-1.447 6.399-2.982 9.562-4.624l.006-.003c8.144-4.224 16.173-9.147 24.033-14.682l14.48 57.97c-4.931.178-9.695 1.209-14.231 3.047zm-137.925-201.207 141.136 118.769c-.13.106-.259.213-.389.318-9.599 7.778-19.521 14.519-29.629 20.119l-28.366-23.871c-3.169-2.667-7.9-2.259-10.567.909-2.667 3.169-2.26 7.9.909 10.567l23.37 19.666c-11.524 5.066-23.638 8.863-36.02 11.149-1.389.257-2.779.507-4.172.725l-110.955-93.37 22.513-26.752 82.604 69.513c3.171 2.668 7.901 2.26 10.567-.909 2.667-3.169 2.26-7.9-.909-10.567l-82.604-69.513zm-32.587 163.24c-3.139 11.755-9.437 22.569-18.433 31.567-13.495 13.495-31.09 20.731-48.243 20.729-8.301 0-16.502-1.696-24.077-5.197-4.952-2.288-6.082-9.063-2.251-12.894l53.435-53.435c4.156 2.514 8.396 4.895 12.692 7.161 8.898 4.693 17.879 8.737 26.877 12.069zm-34.666-33.825c-6.389-3.974-12.597-8.238-18.621-12.746-4.024-3.012-4.759-8.966-1.515-12.822l23.047-27.387 99.499 83.73c-33.961.605-68.774-9.854-102.41-30.775zm130.105 83.716h8.024c4.788 0 8.436-4.675 7.276-9.317l-8.198-32.82c1.588-.36 3.173-.751 4.755-1.157 5.171-1.327 10.286-2.89 15.317-4.678l10.563 42.291c.834 3.34 3.834 5.683 7.276 5.683h13.42c14.435 0 27.306 10.199 30.752 24.182h-116.3c1.548-13.591 13.118-24.184 27.115-24.184zm135.888 0h13.421c14.886 0 27.407 10.321 30.785 24.182h-75.589c-1.406-8.663-5.205-16.528-10.701-22.914-.369-.428-.742-.853-1.125-1.268h6.22c4.806 0 8.44-4.658 7.276-9.317l-18.35-73.463c.382-.311.758-.632 1.139-.946 5.696-4.7 11.182-9.651 16.452-14.823l23.196 92.867c.834 3.339 3.834 5.682 7.276 5.682zm22.125-192.056c0 18.476-6.743 35.794-18.247 49.176.055-.116.103-.235.157-.352 8.79-18.8 12.071-40.077 9.395-60.657-3.638-27.994-18.403-54.189-40.579-71.678-21.365-16.848-48.98-25.358-76.122-23.284-.461-.57-.918-1.145-1.358-1.731-7.81-10.413-11.216-23.145-11.216-36.047 0-8.519 1.675-14.211 4.978-16.918 6.715-5.504 23.321-2.183 40.902 1.335 13.988 2.799 29.843 5.971 45.76 5.971 2.229 0 4.379-.23 6.455-.655 14.536-2.978 25.472-15.538 34.48-25.884 1.437-1.65 4.408-4.991 4.427-5.011.638 4.441.969 8.931.969 13.417v172.318zm15-150.126v-22.178h20.766c-2.069 7.828-7.353 19.091-20.766 22.178z"/>
</svg>
